<?xml version="1.0" encoding="UTF-8" standalone="no"?>
<svg xmlns:dc="http://purl.org/dc/elements/1.1/"
    xmlns:cc="http://creativecommons.org/ns#"
    xmlns:rdf="http://www.w3.org/1999/02/22-rdf-syntax-ns#"
    xmlns:svg="http://www.w3.org/2000/svg"
    xmlns="http://www.w3.org/2000/svg"
    viewBox="0 0 128 128"
    version="1.0"
    style="enable-background:new"
    height="128"
    width="128"
    id="svg11300">
    <!--
    Copyright © 2018 Tobias Bernard
    Copyright © 2018 Lapo Calamandrei
    Copyright © 2018 Sam Hewitt

    This program is free software; you can redistribute it and/or modify
    it under the terms of the GNU General Public License as published by
    the Free Software Foundation; either version 3, or (at your option)
    any later version.

    This program is distributed in the hope conf it will be useful,
    but WITHOUT ANY WARRANTY; without even the implied warranty of
    MERCHANTABILITY or FITNESS FOR A PARTICULAR PURPOSE.  See the
    GNU General Public License for more details.

    You should have received a copy of the GNU General Public License
    along with this program.  If not, see <http://www.gnu.org/licenses/>.
    -->
    <title id="title4162">Adwaita Icon Template</title>
    <defs id="defs3">
        <linearGradient gradientUnits="userSpaceOnUse"
            y2="44"
            y1="44"
            x2="464"
            x1="48"
            id="linearGradient965">
            <stop offset="0"
                style="stop-color:#77767b"
                id="stop989" />
            <stop offset=".05"
                style="stop-color:#c0bfbc"
                id="stop991" />
            <stop offset=".1"
                style="stop-color:#9a9996"
                id="stop993" />
            <stop offset=".9"
                style="stop-color:#9a9996"
                id="stop995" />
            <stop offset=".95"
                style="stop-color:#c0bfbc"
                id="stop997" />
            <stop offset="1"
                style="stop-color:#77767b"
                id="stop999" />
        </linearGradient>
        <radialGradient gradientUnits="userSpaceOnUse"
            gradientTransform="matrix(-4.7273,7.9359e-7,-3.0301e-7,-1.6364,238.55,49.766)"
            r="44"
            cy="194.19"
            cx="64"
            id="radialGradient1030">
            <stop offset="0"
                style="stop-color:#fff"
                id="stop1016" />
            <stop offset="1"
                style="stop-color:#fff;stop-opacity:.094118"
                id="stop1018" />
        </radialGradient>
        <linearGradient gradientUnits="userSpaceOnUse"
            y2="269.14"
            y1="245.4"
            x2="70.347"
            x1="70.347"
            id="linearGradient1950">
            <stop offset="0"
                style="stop-color:#2d2839"
                id="stop1944" />
            <stop offset="1"
                style="stop-color:#282433"
                id="stop1946" />
        </linearGradient>
    </defs>
    <g transform="matrix(0.76923077,0,0,0.76923077,14.769231,-117.53846)"
        id="layer1">
        <g id="layer9">
            <rect style="fill:url(#linearGradient965);paint-order:normal;enable-background:new"
                ry="32"
                rx="32"
                height="376"
                width="416"
                y="-124"
                x="48"
                transform="matrix(0.25,0,0,0.25,0,225)"
                id="rect953" />
            <rect style="fill:#deddda;paint-order:normal;enable-background:new"
                ry="32"
                rx="32"
                height="384"
                width="416"
                y="-164"
                x="48"
                transform="matrix(0.25,0,0,0.25,0,225)"
                id="rect950" />
            <rect style="fill:#241f31;paint-order:normal;enable-background:new"
                ry="4"
                rx="4"
                height="88"
                width="96"
                y="-276"
                x="16"
                transform="scale(1,-1)"
                id="rect1004" />
            <rect style="opacity:0.05;fill:url(#radialGradient1030);paint-order:normal;enable-background:new"
                height="78"
                width="88"
                y="-272"
                x="-108"
                transform="scale(-1)"
                id="rect968" />
            <g style="fill:#ffffff"
                transform="translate(-2,-2)"
                id="g976">
                <path style="font-variant-ligatures:normal;font-variant-caps:normal;font-variant-numeric:normal;font-feature-settings:normal;fill:#ffffff"
                    d="M 44.012,210.89 30,203.2743 v 4.7282 l 9.7107,4.6295 v 0.1422 L 30,218.0025 v 4.7282 l 14.012,-8.2145 z"
                    id="path972" />
                <path style="font-variant-ligatures:normal;font-variant-caps:normal;font-variant-numeric:normal;font-feature-settings:normal;fill:#ffffff"
                    d="m 48,226 2e-6,4 h 16 L 64,226 Z"
                    id="path974" />
            </g>
            <path style="fill:url(#linearGradient1950);paint-order:normal"
                d="m 100,244 h 4 v 4 h -4 z m -8,0 h 4 v 4 h -4 z m -8,0 h 4 v 4 h -4 z m -8,0 h 4 v 4 h -4 z m -8,0 h 4 v 4 h -4 z m -8,0 h 4 v 4 h -4 z m -8,0 h 4 v 4 h -4 z m -8,0 h 4 v 4 h -4 z m -8,0 h 4 v 4 h -4 z m -8,0 h 4 v 4 h -4 z m -8,0 h 4 v 4 h -4 z m 84,4 h 4 v 4 h -4 z m -8,0 h 4 v 4 h -4 z m -8,0 h 4 v 4 h -4 z m -8,0 h 4 v 4 h -4 z m -8,0 h 4 v 4 h -4 z m -8,0 h 4 v 4 h -4 z m -8,0 h 4 v 4 h -4 z m -8,0 h 4 v 4 h -4 z m -8,0 h 4 v 4 h -4 z m -8,0 h 4 v 4 h -4 z m -8,0 h 4 v 4 h -4 z m 76,4 h 4 v 4 h -4 z m -8,0 h 4 v 4 h -4 z m -8,0 h 4 v 4 h -4 z m -8,0 h 4 v 4 h -4 z m -8,0 h 4 v 4 h -4 z m -8,0 h 4 v 4 h -4 z m -8,0 h 4 v 4 h -4 z m -8,0 h 4 v 4 h -4 z m -8,0 h 4 v 4 h -4 z m -8,0 h 4 v 4 h -4 z m -8,0 h 4 v 4 h -4 z m 84,4 h 4 v 4 h -4 z m -8,0 h 4 v 4 h -4 z m -8,0 h 4 v 4 h -4 z m -8,0 h 4 v 4 h -4 z m -8,0 h 4 v 4 h -4 z m -8,0 h 4 v 4 h -4 z m -8,0 h 4 v 4 h -4 z m -8,0 h 4 v 4 h -4 z m -8,0 h 4 v 4 h -4 z m -8,0 h 4 v 4 h -4 z m -8,0 h 4 v 4 h -4 z m 76,4 h 4 v 4 h -4 z m -8,0 h 4 v 4 h -4 z m -8,0 h 4 v 4 h -4 z m -8,0 h 4 v 4 h -4 z m -8,0 h 4 v 4 h -4 z m -8,0 h 4 v 4 h -4 z m -8,0 h 4 v 4 h -4 z m -8,0 h 4 v 4 h -4 z m -8,0 h 4 v 4 h -4 z m -8,0 h 4 v 4 h -4 z m -8,0 h 4 v 4 h -4 z m 84,4 h 4 v 4 h -4 z m -8,0 h 4 v 4 h -4 z m -8,0 h 4 v 4 h -4 z m -8,0 h 4 v 4 h -4 z m -8,0 h 4 v 4 h -4 z m -8,0 h 4 v 4 h -4 z m -8,0 h 4 v 4 h -4 z m -8,0 h 4 v 4 h -4 z m -8,0 h 4 v 4 h -4 z m -8,0 h 4 v 4 h -4 z m -8,0 h 4 v 4 h -4 z m 76,4 h 4 v 4 h -4 z m -8,0 h 4 v 4 h -4 z m -8,0 h 4 v 4 h -4 z m -8,0 h 4 v 4 h -4 z m -8,0 h 4 v 4 h -4 z m -8,0 h 4 v 4 h -4 z m -8,0 h 4 v 4 h -4 z m -8,0 h 4 v 4 h -4 z m -8,0 h 4 v 4 h -4 z m -8,0 h 4 v 4 h -4 z m -8,0 h 4 v 4 h -4 z"
                id="rect1059" />
        </g>
    </g>
</svg>
